<?xml version="1.0" standalone="no"?>
<!DOCTYPE svg PUBLIC "-//W3C//DTD SVG 20010904//EN"
 "http://www.w3.org/TR/2001/REC-SVG-20010904/DTD/svg10.dtd">
<svg version="1.0" xmlns="http://www.w3.org/2000/svg"
 width="628.000000pt" height="628.000000pt" viewBox="0 0 628.000000 628.000000"
 preserveAspectRatio="xMidYMid meet">
<metadata>
Created by potrace 1.14, written by Peter Selinger 2001-2017
</metadata>
<g transform="translate(0.000000,628.000000) scale(0.100000,-0.100000)"
fill="#000000" stroke="none">
<path d="M4398 6074 c-4 -3 -17 -7 -30 -9 -12 -1 -45 -6 -73 -9 -53 -7 -90
-14 -90 -16 0 -1 -11 -3 -25 -5 -14 -2 -54 -11 -90 -20 -36 -10 -69 -18 -75
-19 -5 -2 -30 -8 -55 -15 -25 -8 -52 -15 -60 -16 -8 -2 -15 -4 -15 -5 0 -2
-14 -5 -53 -14 -12 -3 -28 -8 -34 -12 -7 -5 -19 -9 -28 -10 -15 -2 -262 -87
-310 -107 -14 -6 -27 -11 -30 -12 -3 -1 -18 -7 -35 -14 -16 -7 -56 -22 -87
-32 -32 -11 -115 -44 -185 -74 -70 -30 -131 -55 -135 -55 -3 0 -42 -16 -85
-36 -43 -20 -82 -38 -88 -39 -40 -11 -55 -19 -55 -28 0 -6 -3 -8 -6 -5 -3 4
-42 -12 -87 -34 -236 -114 -274 -134 -296 -150 -13 -10 -27 -16 -31 -13 -4 2
-15 -4 -25 -15 -10 -11 -22 -17 -26 -14 -5 3 -9 0 -9 -5 0 -6 -5 -11 -10 -11
-6 0 -34 -15 -63 -33 -29 -18 -64 -39 -79 -46 -16 -8 -28 -18 -28 -23 0 -4 -5
-8 -11 -8 -10 0 -89 -51 -116 -75 -6 -5 -28 -21 -48 -35 -73 -50 -204 -173
-250 -235 -17 -22 -33 -42 -36 -45 -3 -3 -21 -36 -40 -75 -29 -61 -33 -80 -34
-156 -2 -72 -6 -93 -26 -125 -13 -22 -32 -52 -41 -69 -32 -54 -127 -257 -127
-270 0 -3 -8 -31 -18 -63 -9 -31 -18 -61 -19 -67 -12 -56 -16 -79 -20 -135 -3
-42 0 -81 9 -110 13 -44 13 -46 -10 -65 -42 -35 -64 -97 -90 -245 -7 -41 -6
-230 1 -311 6 -70 34 -187 51 -215 12 -19 8 -26 -53 -86 -69 -67 -96 -97 -100
-110 -1 -5 -10 -17 -19 -27 -32 -35 -43 -51 -42 -57 0 -4 -3 -10 -8 -13 -20
-14 -83 -152 -102 -221 -31 -114 -30 -258 3 -318 11 -21 7 -28 -64 -100 -284
-288 -399 -682 -242 -831 17 -17 27 -37 28 -56 1 -50 15 -127 27 -149 18 -32
88 -96 98 -90 5 3 9 1 9 -5 0 -9 40 -27 49 -22 2 2 7 -1 10 -6 3 -5 38 -19 76
-31 110 -36 155 -62 161 -91 40 -192 76 -238 197 -249 62 -6 226 -6 587 -1
107 1 227 0 265 -4 39 -4 97 -9 130 -12 33 -3 85 -7 115 -10 30 -3 89 -8 130
-11 41 -2 95 -7 120 -9 25 -2 72 -7 105 -9 33 -3 89 -8 125 -11 36 -3 97 -8
135 -11 39 -3 86 -7 105 -10 34 -4 46 -4 73 -4 6 1 30 -1 52 -4 22 -3 74 -8
115 -11 41 -3 102 -8 135 -11 33 -3 81 -6 107 -8 26 -1 50 -5 54 -9 4 -4 13
-2 21 4 7 6 13 7 13 2 0 -5 10 -9 23 -10 47 -2 212 -12 212 -14 0 -1 48 -6
140 -13 83 -7 155 -12 250 -20 171 -15 203 -18 255 -21 30 -2 55 -4 55 -5 0
-6 161 -9 545 -9 377 -1 485 1 485 9 0 1 9 3 20 4 68 9 102 37 111 92 3 20 8
46 10 58 44 209 48 560 9 666 -7 19 -19 57 -25 83 -7 26 -31 78 -53 115 -44
73 -45 74 -82 116 -14 16 -25 32 -25 35 0 3 -10 17 -22 31 -13 14 -39 45 -59
70 -20 25 -47 56 -59 70 -12 14 -40 47 -63 75 -23 27 -53 61 -67 76 -24 26
-82 95 -107 128 -71 91 -94 123 -119 166 -16 28 -29 52 -30 55 0 3 -13 32 -28
65 -43 92 -152 404 -163 465 -1 8 -16 70 -33 138 -16 67 -32 135 -35 150 -3
15 -7 36 -9 47 -2 11 -7 40 -11 65 -4 25 -9 54 -12 65 -2 11 -6 38 -8 60 -3
22 -7 54 -10 70 -5 31 -12 95 -20 175 -3 25 -7 113 -10 195 -4 83 -11 162 -16
176 -12 30 -66 59 -112 59 -39 0 -94 -42 -135 -103 -30 -44 -88 -176 -116
-264 -10 -29 -29 -69 -43 -90 -30 -44 -83 -152 -83 -170 0 -19 -18 -25 -39
-11 -12 7 -17 16 -12 23 7 8 21 59 37 128 1 4 2 8 4 10 15 19 37 186 35 270
-4 142 -53 229 -145 260 -48 16 -128 15 -172 -2 -16 -6 -28 -7 -28 -3 0 4 -4
1 -9 -6 -4 -7 -15 -14 -23 -16 -9 -1 -23 -8 -32 -15 -9 -7 -16 -10 -16 -7 0 4
-6 1 -14 -6 -8 -7 -34 -29 -59 -48 -24 -19 -57 -52 -73 -72 -30 -41 -54 -49
-54 -20 0 18 -18 63 -42 107 -7 11 -17 30 -23 41 -17 34 -78 89 -114 104 -18
7 -49 14 -69 16 -43 3 -122 -14 -122 -27 0 -5 -7 -9 -15 -9 -33 0 -114 -85
-156 -163 -39 -74 -58 -164 -47 -231 11 -78 19 -100 63 -190 14 -27 24 -50 22
-51 -44 -22 -127 -51 -128 -44 -3 19 -5 24 -12 37 -5 6 -6 12 -2 12 3 0 -1 13
-9 29 -9 16 -12 31 -9 35 4 3 1 6 -5 6 -7 0 -12 5 -12 12 0 17 -93 196 -137
264 -21 33 -40 64 -43 71 -15 36 -168 203 -185 203 -8 0 -15 4 -17 10 -1 5
-21 11 -43 13 -35 4 -44 1 -72 -30 -19 -21 -33 -47 -34 -62 -2 -115 -10 -272
-14 -301 -3 -19 -7 -60 -10 -90 -6 -57 -38 -228 -54 -290 -23 -89 -96 -309
-112 -341 -10 -20 -15 -39 -12 -43 4 -3 1 -6 -5 -6 -7 0 -12 -6 -12 -14 0 -18
-121 -260 -132 -264 -4 -2 -8 -9 -8 -15 0 -12 -81 -140 -93 -145 -4 -2 -5 -7
-2 -12 2 -4 -4 -15 -15 -25 -11 -10 -20 -22 -20 -26 0 -8 -83 -125 -138 -196
-46 -58 -144 -150 -192 -178 -16 -10 -30 -21 -68 -55 -9 -9 -51 -42 -92 -75
-149 -117 -330 -324 -330 -377 0 -8 -10 -31 -21 -53 -15 -28 -19 -43 -11 -55
6 -10 6 -35 0 -70 -5 -30 -9 -133 -9 -228 0 -133 -3 -171 -12 -164 -14 11 -89
37 -99 34 -5 -1 -8 3 -8 8 0 5 -3 9 -7 8 -38 -9 -169 64 -206 113 -26 36 -37
149 -14 149 37 0 130 69 154 113 33 65 -12 113 -103 108 -30 -1 -79 -55 -93
-101 -6 -22 -15 -40 -19 -40 -4 0 -17 18 -29 40 -18 33 -21 54 -19 122 3 105
8 130 44 220 32 78 74 155 127 230 51 70 65 86 129 150 56 54 61 57 82 43 69
-45 182 0 213 87 7 19 5 32 -5 47 -22 30 -76 27 -152 -9 -35 -17 -65 -30 -67
-30 -2 0 -6 12 -9 27 -4 16 -9 39 -12 53 -15 72 0 186 38 280 47 117 105 204
213 316 l70 73 46 -16 c40 -15 52 -15 86 -4 69 23 120 94 87 122 -15 12 -94 7
-117 -8 -7 -4 -17 -8 -23 -9 -6 -1 -21 -5 -32 -8 -16 -5 -23 1 -37 36 -19 47
-24 66 -31 118 -2 19 -7 46 -10 60 -6 31 -6 288 0 298 2 4 7 32 11 62 7 63 48
155 72 164 9 4 27 -1 40 -10 14 -8 45 -17 70 -20 40 -3 49 0 73 26 37 39 44
96 16 116 -28 19 -56 18 -117 -6 -33 -13 -56 -17 -62 -11 -10 10 -13 113 -5
176 3 22 16 74 29 115 12 41 23 77 24 80 0 3 6 15 13 28 7 12 10 22 7 22 -2 0
19 46 49 103 66 127 89 167 98 167 7 0 53 -140 50 -152 -1 -5 2 -8 8 -8 5 0 7
-6 4 -14 -3 -8 -1 -17 5 -21 6 -3 11 -13 11 -20 0 -51 125 -262 171 -289 27
-16 119 -28 119 -15 0 3 10 5 22 4 31 -2 126 21 203 51 11 4 22 8 25 9 3 1 23
10 45 20 22 10 42 19 45 20 54 22 70 31 70 37 0 4 5 8 10 8 15 0 120 71 120
81 0 5 5 9 11 9 29 0 153 174 148 207 -1 4 0 10 1 13 5 15 4 73 -2 77 -5 2 -8
13 -8 24 0 52 -112 177 -209 234 -28 17 -54 40 -57 51 -7 28 27 80 78 119 22
17 47 38 56 48 9 9 20 17 24 17 4 0 28 14 53 31 66 44 236 135 244 130 2 -2 7
1 10 6 7 9 77 43 87 42 4 0 10 3 13 8 3 5 58 31 121 58 63 26 131 55 150 63
19 9 40 17 45 18 6 2 73 26 150 54 77 29 147 53 155 55 8 2 35 9 60 16 25 7
47 13 50 14 3 1 24 7 47 13 37 11 84 21 175 36 27 4 47 -17 27 -29 -5 -4 -7
-10 -5 -14 3 -4 1 -25 -5 -46 -17 -62 -20 -77 -20 -141 -1 -131 74 -203 225
-219 28 -3 52 -8 55 -10 2 -3 10 0 18 6 10 9 13 8 13 0 0 -7 4 -10 9 -7 5 3
28 8 52 10 170 19 338 96 452 205 165 157 172 364 19 571 -30 41 -175 190
-180 185 -6 -6 -62 58 -62 71 0 7 -16 16 -35 20 -19 3 -38 10 -41 15 -6 10
-18 12 -26 3z m-2885 -2413 c-6 -22 -42 -35 -58 -21 -7 6 -15 7 -18 3 -4 -3
-7 1 -7 9 0 10 14 20 38 25 44 12 52 9 45 -16z m-79 -820 c9 -13 -19 -21 -35
-9 -11 8 -10 9 4 4 9 -3 17 -1 17 4 0 12 7 13 14 1z m-264 -801 c-19 -36 -120
-70 -120 -41 0 12 14 22 65 43 56 23 68 23 55 -2z m-324 -810 c16 0 8 -26 -15
-49 -24 -24 -71 -53 -71 -44 0 5 -5 1 -11 -7 -18 -26 -2 47 18 76 18 27 56 48
61 33 2 -5 10 -9 18 -9z"/>
<path d="M2020 5422 c-14 -15 -45 -43 -70 -62 -25 -19 -47 -37 -50 -40 -3 -3
-32 -23 -65 -45 -33 -22 -61 -43 -63 -47 -2 -5 -10 -8 -17 -8 -8 0 -18 -6 -22
-14 -4 -7 -19 -19 -33 -26 -58 -30 -207 -180 -243 -245 -66 -118 -78 -257 -34
-405 9 -33 18 -45 32 -45 24 0 26 21 8 90 -14 53 -19 160 -9 211 8 43 32 99
64 148 33 50 162 177 174 170 4 -3 8 -1 8 4 0 5 44 39 98 76 53 36 110 77 126
91 16 14 33 25 37 25 19 0 128 121 123 135 -9 23 -37 18 -64 -13z"/>
<path d="M1703 5332 c-21 -20 -85 -75 -143 -122 -58 -46 -119 -98 -137 -116
-17 -17 -34 -29 -37 -26 -3 3 -6 1 -6 -5 0 -5 -16 -27 -35 -49 -33 -37 -81
-122 -87 -154 -2 -8 -6 -18 -11 -21 -10 -7 -21 -190 -13 -222 6 -24 19 -29 41
-15 6 4 9 34 8 70 -8 190 58 296 312 499 115 91 185 160 185 180 0 31 -35 22
-77 -19z"/>
<path d="M1283 5123 c-113 -110 -162 -213 -106 -221 17 -3 24 3 29 25 6 25 29
69 44 83 94 96 112 119 105 139 -3 11 -10 21 -14 21 -5 0 -31 -21 -58 -47z"/>
<path d="M5335 2224 c-47 -99 -23 -160 73 -181 12 -3 17 -4 65 -18 28 -7 29
-11 29 -90 -1 -44 25 -108 39 -99 5 3 9 1 9 -3 0 -5 10 -10 23 -10 12 -1 31
-4 42 -6 11 -3 28 -6 37 -6 16 -1 17 -11 15 -88 -2 -85 -1 -88 24 -100 15 -7
45 -14 68 -15 23 -1 47 -8 53 -16 7 -8 13 -48 14 -88 2 -82 11 -100 61 -121
36 -15 50 -36 46 -73 -10 -92 -9 -135 2 -189 15 -71 39 -113 60 -105 16 6 21
45 8 58 -5 4 -9 12 -9 17 -1 5 -2 10 -3 12 -7 8 -14 79 -12 117 8 164 5 174
-61 209 l-44 22 3 62 c5 94 -32 144 -112 151 -22 2 -43 4 -48 5 -4 1 -5 24 -2
53 4 29 7 54 7 58 4 42 -28 78 -76 86 -63 9 -78 13 -84 19 -4 3 -7 31 -8 63
-1 31 -2 63 -3 70 -2 18 -52 63 -62 56 -5 -3 -9 -1 -9 4 0 5 -6 9 -12 9 -47 2
-108 26 -108 43 0 5 7 30 16 55 12 36 13 50 3 61 -17 21 -25 17 -44 -22z"/>
<path d="M5615 2187 c-8 -12 -15 -27 -15 -33 0 -14 30 -41 50 -46 26 -6 38
-30 29 -60 -11 -38 19 -71 56 -62 38 9 58 -2 46 -24 -7 -13 -7 -31 0 -56 10
-35 12 -36 54 -36 40 0 45 -3 45 -22 0 -51 12 -68 51 -78 22 -6 39 -12 40 -13
0 -1 3 -24 6 -52 5 -57 27 -88 55 -79 10 3 18 0 18 -6 0 -6 5 -8 10 -5 6 4 10
-7 10 -25 0 -33 13 -65 37 -88 7 -7 13 -26 13 -41 0 -49 44 -67 50 -21 6 40
-2 71 -24 97 -26 30 -26 32 -26 66 0 31 -30 66 -61 70 -21 3 -25 11 -32 58 -8
58 -20 77 -52 81 -32 6 -40 15 -43 49 -3 44 -37 72 -75 63 -29 -6 -30 -6 -23
29 4 19 2 46 -3 59 -9 25 -46 43 -56 28 -3 -4 -14 -6 -24 -3 -16 4 -19 12 -16
36 3 26 -3 37 -35 67 -22 21 -40 42 -40 47 0 22 -30 22 -45 0z"/>
<path d="M469 1819 c-14 -5 -32 -24 -40 -42 -15 -32 -15 -39 6 -159 5 -33 3
-38 -25 -54 -40 -24 -44 -42 -20 -92 23 -48 39 -139 23 -129 -6 4 -18 -4 -27
-18 -16 -24 -14 -38 13 -100 40 -91 46 -131 22 -138 -13 -3 -18 -12 -16 -23 2
-11 4 -24 4 -30 1 -5 10 -19 20 -31 23 -24 61 -97 61 -115 0 -7 -9 -19 -20
-26 -27 -16 -17 -37 45 -97 29 -27 54 -56 57 -64 2 -8 14 -16 26 -18 45 -6 19
64 -45 120 -30 27 -31 30 -17 52 8 12 12 30 8 41 -17 49 -48 111 -62 127 -13
15 -14 22 -4 37 18 29 15 62 -14 137 -38 101 -38 103 -21 103 37 0 40 61 8
156 l-17 50 29 29 c26 25 28 33 23 77 -20 160 -21 145 11 160 17 8 28 21 28
33 0 23 -19 28 -56 14z"/>
<path d="M308 1722 c-10 -2 -18 -10 -18 -19 0 -8 -9 -17 -19 -20 -22 -5 -34
-35 -31 -75 1 -15 -8 -48 -21 -72 -15 -31 -20 -53 -15 -73 19 -78 19 -85 0
-83 -42 5 -52 -1 -58 -32 -5 -23 0 -44 19 -80 20 -38 23 -53 15 -68 -9 -17 -7
-20 15 -26 27 -7 55 9 55 32 0 7 -11 33 -25 58 -23 40 -34 78 -19 63 11 -10
64 15 66 31 0 10 2 24 3 32 1 8 -4 29 -11 47 -15 37 -14 47 9 90 9 18 17 45
17 62 0 28 21 61 40 61 15 0 18 25 6 51 -7 16 -17 24 -28 21z"/>
</g>
</svg>
